# xmcd
#
# Track frame offsets:
#	150
#	18852
#	34522
#	50618
#	71587
#	90755
#	108732
#	128885
#	136570
#	154569
#	171992
#	192128
#	213215
#	230075
#
# Disc length: 3277 seconds
#
# Revision: 0
# Processed by: cddbd v1.5.2PL0 Copyright (c) Steve Scherf et al.
# Submitted via: audiograbber 1.83.01
#
DISCID=af0ccb0e
DTITLE=Excentric - White Knuckle Ride
DYEAR=2011
DGENRE=Rock
TTITLE0=Hold On
TTITLE1=KMA Goodbye
TTITLE2=Take Me Away
TTITLE3=Maybe Tomorrow
TTITLE4=So Long!
TTITLE5=And Then Sun...
TTITLE6=Keep Away
TTITLE7=Hollywood Diva
TTITLE8=No Way Out
TTITLE9=Part Of Me
TTITLE10=Still Standing
TTITLE11=After All
TTITLE12=The 11th Hour
TTITLE13=Take Me Away (Timba Remix)
EXTD=
EXTT0=
EXTT1=
EXTT2=
EXTT3=
EXTT4=
EXTT5=
EXTT6=
EXTT7=
EXTT8=
EXTT9=
EXTT10=
EXTT11=
EXTT12=
EXTT13=
PLAYORDER=
